<?xml version="1.0" encoding="utf-8" standalone="no"?>
<!DOCTYPE svg PUBLIC "-//W3C//DTD SVG 1.1//EN"
  "http://www.w3.org/Graphics/SVG/1.1/DTD/svg11.dtd">
<!-- Created with matplotlib (https://matplotlib.org/) -->
<svg height="576pt" version="1.1" viewBox="0 0 576 576" width="576pt" xmlns="http://www.w3.org/2000/svg" xmlns:xlink="http://www.w3.org/1999/xlink">
 <metadata>
  <rdf:RDF xmlns:cc="http://creativecommons.org/ns#" xmlns:dc="http://purl.org/dc/elements/1.1/" xmlns:rdf="http://www.w3.org/1999/02/22-rdf-syntax-ns#">
   <cc:Work>
    <dc:type rdf:resource="http://purl.org/dc/dcmitype/StillImage"/>
    <dc:date>2020-11-12T02:58:38.577272</dc:date>
    <dc:format>image/svg+xml</dc:format>
    <dc:creator>
     <cc:Agent>
      <dc:title>Matplotlib v3.3.2, https://matplotlib.org/</dc:title>
     </cc:Agent>
    </dc:creator>
   </cc:Work>
  </rdf:RDF>
 </metadata>
 <defs>
  <style type="text/css">*{stroke-linecap:butt;stroke-linejoin:round;}</style>
 </defs>
 <g id="figure_1">
  <g id="patch_1">
   <path d="M 0 576 
L 576 576 
L 576 0 
L 0 0 
z
" style="fill:none;"/>
  </g>
  <g id="axes_1">
   <g id="PatchCollection_1">
    <path clip-path="url(#pabb2ad135e)" d="M 1217.383761 146.539077 
L 1224.350752 142.912923 
L 1224.350752 148.857864 
L 1218.35732 149.301957 
L 1217.383761 146.539077 
" style="fill:#7f2704;stroke:#cccccc;"/>
    <path clip-path="url(#pabb2ad135e)" d="M 508.911013 361.365187 
L 506.420069 366.523212 
L 501.121177 367.956577 
L 495.688925 376.935022 
L 500.656766 385.189392 
L 500.118842 391.047922 
L 506.086449 401.291085 
L 506.086359 401.291183 
L 502.823016 404.796747 
L 501.885025 407.009443 
L 499.467319 406.415256 
L 495.711118 401.132292 
L 494.174632 400.840592 
L 490.739229 398.824794 
L 489.066097 395.255815 
L 483.968578 393.436172 
L 480.654172 394.80198 
L 479.696491 393.185357 
L 472.254595 389.015119 
L 464.208095 387.607412 
L 459.588439 386.120521 
L 458.921875 387.147764 
L 451.953197 379.798272 
L 445.717612 376.51745 
L 440.997198 371.407784 
L 444.974565 370.017734 
L 449.509804 362.743409 
L 446.453281 359.301769 
L 454.509291 355.751582 
L 454.364617 353.8502 
L 449.458362 355.251994 
L 449.630935 351.388427 
L 452.448216 348.959887 
L 457.737312 348.322205 
L 458.597281 345.421791 
L 457.389549 340.625847 
L 459.60934 336.071698 
L 459.545124 333.517908 
L 451.488558 330.687605 
L 448.2947 330.781542 
L 444.921491 326.708527 
L 440.727787 328.0859 
L 433.786202 325.027768 
L 433.905319 323.316579 
L 431.96106 319.545019 
L 427.602975 319.123874 
L 427.15022 316.423962 
L 428.515264 314.662974 
L 425.022582 309.738455 
L 419.355094 310.578723 
L 417.69518 310.141847 
L 416.314473 312.120072 
L 414.27336 311.768449 
L 414.273238 311.768428 
L 412.928966 306.198726 
L 411.645548 303.311613 
L 412.697343 302.498961 
L 417.107418 302.800801 
L 419.234209 300.898682 
L 417.659875 298.579689 
L 413.974285 297.049049 
L 414.303048 295.478184 
L 412.078815 293.891586 
L 408.652224 288.197141 
L 409.823513 285.85073 
L 409.288285 281.767827 
L 403.945041 279.693565 
L 401.077121 280.73182 
L 400.300687 278.572609 
L 394.54649 276.391375 
L 392.789698 271.258082 
L 392.323668 267.040341 
L 389.690176 265.037543 
L 392.032188 262.277178 
L 390.411444 254.16518 
L 394.300482 249.153144 
L 393.477477 247.635022 
L 393.477515 247.634993 
L 399.689561 242.828032 
L 393.96327 238.692592 
L 393.963259 238.692584 
L 405.665679 227.59003 
L 410.74258 222.565731 
L 412.798195 218.130001 
L 404.707917 212.171048 
L 406.942319 206.503346 
L 402.021891 200.030434 
L 405.701439 192.573908 
L 399.34462 182.673376 
L 404.388475 176.115292 
L 396.018014 170.319942 
L 396.815914 164.230196 
L 401.230038 163.428773 
L 410.529701 159.93946 
L 410.529908 159.939382 
L 416.168432 156.914009 
L 425.147034 162.171969 
L 440.114505 164.241998 
L 460.765591 174.079158 
L 464.960597 178.212866 
L 465.321764 184.001554 
L 459.2543 188.571273 
L 450.329643 190.890488 
L 425.929926 184.279616 
L 421.916705 185.384907 
L 430.827425 191.754855 
L 431.176153 195.789995 
L 431.533251 204.677575 
L 438.569546 207.329648 
L 442.840579 209.587719 
L 443.546952 205.370426 
L 440.254528 201.632633 
L 443.733165 198.33833 
L 456.945743 203.751977 
L 461.548592 201.632633 
L 457.870248 195.262858 
L 470.607757 186.744342 
L 475.652226 187.245759 
L 480.755504 190.28557 
L 483.939267 184.308057 
L 479.381673 179.123331 
L 482.057409 173.921644 
L 478.039487 168.526697 
L 493.327734 171.3168 
L 496.450446 176.187717 
L 489.530076 177.261436 
L 489.567515 182.101389 
L 493.869647 185.079273 
L 502.314043 183.192938 
L 503.650927 177.645348 
L 515.068003 173.502768 
L 534.141664 166.034052 
L 538.264252 166.462235 
L 532.875779 171.740286 
L 539.655628 172.647359 
L 543.571178 169.675911 
L 553.815557 169.435683 
L 561.931853 165.83018 
L 568.159459 171.06944 
L 574.370667 165.309455 
L 568.643601 160.270848 
L 571.485709 157.40064 
L 587.63107 160.032621 
L 595.196078 162.751099 
L 615.003632 172.688151 
L 618.65749 168.136697 
L 613.103136 163.538014 
L 612.943432 161.692993 
L 606.356627 160.839584 
L 608.158524 156.715878 
L 605.235306 149.930358 
L 605.069917 147.146431 
L 615.156122 139.270493 
L 618.743191 131.365592 
L 622.807624 129.655296 
L 637.277999 131.94894 
L 638.417521 136.786806 
L 633.236576 143.841256 
L 636.636175 146.613963 
L 638.394838 152.694021 
L 637.153165 164.612255 
L 643.182643 169.943449 
L 640.836974 175.749097 
L 630.131518 188.103168 
L 636.378745 189.384585 
L 638.552739 186.253449 
L 644.566094 184.019993 
L 646.017318 179.716159 
L 650.747734 175.574536 
L 647.562714 170.629777 
L 650.11285 164.887708 
L 644.136334 164.17207 
L 642.821914 159.334725 
L 647.183074 150.601291 
L 640.084909 143.509094 
L 649.866789 137.646738 
L 648.601177 131.462048 
L 651.327141 131.264613 
L 654.19931 136.086649 
L 652.04297 144.479833 
L 657.891864 146.068798 
L 655.399664 139.796611 
L 664.546442 136.377062 
L 675.889569 135.916611 
L 685.989875 140.8752 
L 681.129378 133.631404 
L 680.584896 124.365416 
L 690.08907 122.61024 
L 703.235241 122.993717 
L 715.079399 121.854593 
L 710.637293 117.307574 
L 716.962405 111.595338 
L 723.24177 111.356154 
L 733.868467 107.041536 
L 748.300801 105.881885 
L 750.124287 103.499873 
L 764.475786 102.692736 
L 768.947788 104.645521 
L 781.214382 100.02353 
L 791.255386 100.167997 
L 792.761977 96.414026 
L 797.98446 92.711892 
L 810.887412 89.142571 
L 820.261122 91.960854 
L 812.818953 94.104726 
L 825.199231 95.437285 
L 826.67423 99.735552 
L 831.668689 97.618991 
L 847.64713 97.735104 
L 859.967942 101.977445 
L 864.354955 105.235566 
L 862.995225 109.757014 
L 856.949132 112.330894 
L 842.585937 117.159193 
L 838.47991 119.740032 
L 845.257245 120.957696 
L 853.341895 123.151753 
L 858.262842 121.506254 
L 861.050512 127.089069 
L 863.451165 124.829172 
L 872.190702 123.455212 
L 889.727111 124.891447 
L 891.058912 128.959488 
L 913.908696 130.253517 
L 914.220836 123.610203 
L 925.820081 125.132544 
L 934.545572 125.084794 
L 943.37152 129.666516 
L 945.887387 135.232893 
L 942.654106 138.874752 
L 949.518836 145.719415 
L 958.113972 149.251076 
L 963.387832 140.124597 
L 972.155517 144.037473 
L 981.470363 141.699298 
L 992.049673 144.374853 
L 996.075301 141.936046 
L 1005.015589 143.15545 
L 1001.069869 135.080946 
L 1008.285872 131.312972 
L 1057.650176 136.96128 
L 1062.302379 142.123914 
L 1076.60977 148.770707 
L 1098.679724 147.125208 
L 1109.561227 148.557616 
L 1114.111442 152.1539 
L 1113.446553 158.514107 
L 1120.179453 160.990313 
L 1127.495367 159.209393 
L 1137.188104 158.981603 
L 1147.506542 160.68842 
L 1157.865479 159.725595 
L 1167.386323 167.456805 
L 1174.159559 164.675052 
L 1169.739643 159.116155 
L 1172.173198 155.252072 
L 1189.610953 157.683921 
L 1200.980042 157.16363 
L 1216.698922 161.31456 
L 1224.350752 165.109876 
L 1224.350752 199.760486 
L 1224.311454 199.807267 
L 1217.284834 203.628993 
L 1210.201863 202.991633 
L 1215.130297 207.621191 
L 1218.383691 214.787666 
L 1220.909287 217.130364 
L 1221.543405 220.728387 
L 1220.132681 223.03186 
L 1209.945089 221.137523 
L 1194.668703 227.684641 
L 1189.808917 228.698259 
L 1181.44585 234.80928 
L 1173.512542 240.148041 
L 1171.503117 244.100317 
L 1163.685188 238.083492 
L 1149.444695 244.911108 
L 1146.95796 241.680384 
L 1141.693173 245.406436 
L 1134.383216 244.213908 
L 1132.622312 249.934319 
L 1126.064803 258.351248 
L 1126.259597 261.86647 
L 1132.484579 263.815515 
L 1131.752353 276.477394 
L 1126.678316 276.79964 
L 1124.338386 284.07527 
L 1126.612237 287.819934 
L 1117.054445 292.262755 
L 1115.157666 302.193327 
L 1107.009615 304.314585 
L 1105.371249 313.151259 
L 1097.493199 321.254292 
L 1095.472077 315.26208 
L 1093.13182 302.572716 
L 1090.081144 283.245953 
L 1092.708783 271.183339 
L 1097.320267 265.992785 
L 1097.605571 261.928049 
L 1106.098993 259.982309 
L 1115.862236 249.031856 
L 1125.270707 240.088723 
L 1135.09593 233.148908 
L 1139.489501 220.887814 
L 1132.848095 221.62137 
L 1129.565952 228.786192 
L 1115.702859 238.338505 
L 1111.225664 227.642806 
L 1097.115472 230.595989 
L 1083.43717 245.175254 
L 1087.950055 250.508883 
L 1075.751399 252.779826 
L 1067.300937 253.675331 
L 1067.696755 247.386358 
L 1059.200819 246.066323 
L 1052.429496 250.339019 
L 1035.717955 248.843988 
L 1017.739435 251.42187 
L 1000.034522 268.398976 
L 979.088786 288.911918 
L 987.699936 290.008164 
L 990.387423 295.454862 
L 995.696043 297.388425 
L 999.19364 293.043626 
L 1005.188739 293.607839 
L 1013.079962 303.176156 
L 1013.265355 310.576074 
L 1008.9923 319.265846 
L 1008.531332 329.651998 
L 1006.06553 343.557895 
L 997.827734 356.143844 
L 995.996706 362.159974 
L 988.577765 372.287894 
L 981.215776 382.329274 
L 977.685221 387.467729 
L 970.40221 392.570959 
L 966.955607 392.683853 
L 963.522122 388.456211 
L 956.186203 394.821289 
L 955.334308 397.715238 
L 955.334301 397.71526 
L 955.334281 397.715328 
L 955.334239 397.715244 
L 954.569098 396.193248 
L 954.569097 396.193037 
L 954.535575 391.77474 
L 957.327517 391.540121 
L 958.113837 381.263646 
L 956.67439 373.814671 
L 961.365313 370.742665 
L 967.998715 372.282763 
L 971.674458 363.821416 
L 973.547549 354.292734 
L 975.670713 351.109673 
L 978.54289 343.283748 
L 969.50982 345.847698 
L 964.771666 349.278742 
L 956.46708 349.268565 
L 954.253697 341.096671 
L 947.779837 334.913437 
L 938.267422 332.133076 
L 936.245457 323.613539 
L 934.341795 318.27237 
L 932.293524 314.52926 
L 928.915513 305.757355 
L 924.115971 302.554497 
L 915.935393 299.964741 
L 908.689536 300.20022 
L 901.897645 301.768614 
L 897.383087 306.095799 
L 900.38206 308.16287 
L 900.449893 312.964957 
L 897.410368 315.75306 
L 892.476632 324.977995 
L 892.526209 328.805263 
L 884.824006 334.301271 
L 878.262871 331.017509 
L 871.741843 331.74249 
L 868.880137 328.828185 
L 865.602676 327.888362 
L 857.597131 334.017886 
L 850.40163 335.458183 
L 845.377546 337.613798 
L 838.493296 336.197547 
L 833.425151 336.288113 
L 830.107584 331.84227 
L 824.754737 327.662283 
L 819.27705 326.516607 
L 812.363013 327.653377 
L 807.197839 329.265511 
L 799.433115 325.607353 
L 798.390936 319.089807 
L 791.964877 316.854995 
L 787.003495 315.836067 
L 780.88071 312.240829 
L 775.219719 321.254768 
L 777.438868 326.374128 
L 772.126304 332.430708 
L 764.224478 330.244044 
L 758.76943 329.931162 
L 755.116321 325.868485 
L 749.41376 325.740166 
L 744.661436 323.07104 
L 736.348028 327.162033 
L 725.919128 334.653199 
L 720.156739 336.160691 
L 718.018086 336.875783 
L 715.117968 331.555514 
L 708.077811 332.719393 
L 705.751051 329.027746 
L 701.929606 327.33957 
L 699.299221 322.313698 
L 696.281607 320.748675 
L 688.42745 322.983845 
L 680.898385 317.972805 
L 677.98584 322.526743 
L 665.772186 300.43776 
L 658.799533 293.718094 
L 660.799507 290.991215 
L 647.1012 299.198917 
L 641.858924 299.695026 
L 642.311679 294.94782 
L 635.291858 291.981602 
L 629.585675 294.098338 
L 627.864754 285.083725 
L 618.04254 283.209248 
L 613.128608 286.817521 
L 599.452436 290.028168 
L 596.783388 292.176668 
L 576.331503 295.20324 
L 573.825346 298.171353 
L 577.771065 304.129183 
L 572.524134 306.390646 
L 573.547705 308.760204 
L 568.302186 312.997047 
L 577.159013 318.978923 
L 575.78945 323.098008 
L 568.112385 322.722932 
L 566.524494 325.303962 
L 559.534207 320.796885 
L 550.869384 320.97162 
L 545.070172 324.640615 
L 538.598574 321.122177 
L 526.551561 315.09985 
L 518.013894 315.32503 
L 506.731453 324.784834 
L 506.050767 331.137291 
L 500.430165 326.093215 
L 496.069255 335.649204 
L 497.665619 337.423227 
L 494.510738 344.015021 
L 499.149902 349.914623 
L 503.205426 349.671786 
L 506.689651 355.483017 
L 506.134984 359.958698 
L 508.911013 361.365187 
" style="fill:#7f2704;stroke:#cccccc;"/>
    <path clip-path="url(#pabb2ad135e)" d="M 753.094563 60.208439 
L 764.917925 58.244521 
L 775.537325 62.62311 
L 788.12352 71.032298 
L 786.774092 78.853136 
L 774.849153 79.938075 
L 759.625564 77.428426 
L 750.554265 74.108074 
L 746.359532 67.869372 
L 738.90266 66.150118 
L 753.094563 60.208439 
" style="fill:#7f2704;stroke:#cccccc;"/>
    <path clip-path="url(#pabb2ad135e)" d="M 802.61368 75.371052 
L 816.466853 80.310854 
L 814.843791 83.845994 
L 784.032441 87.20231 
L 794.016767 75.782449 
L 798.506479 74.804664 
L 802.61368 75.371052 
" style="fill:#7f2704;stroke:#cccccc;"/>
    <path clip-path="url(#pabb2ad135e)" d="M 999.338178 102.720916 
L 1013.770294 103.10248 
L 1033.526608 107.714513 
L 1029.229094 114.173568 
L 1009.081881 113.932818 
L 1000.017906 115.987192 
L 989.190294 110.332099 
L 992.127339 104.352499 
L 999.338178 102.720916 
" style="fill:#7f2704;stroke:#cccccc;"/>
    <path clip-path="url(#pabb2ad135e)" d="M 1050.666406 109.599979 
L 1064.381982 111.87688 
L 1058.065151 115.313649 
L 1049.32862 114.53578 
L 1039.172046 111.103489 
L 1040.479935 108.286858 
L 1050.666406 109.599979 
" style="fill:#7f2704;stroke:#cccccc;"/>
    <path clip-path="url(#pabb2ad135e)" d="M 1004.978915 126.786567 
L 1010.163522 123.349014 
L 1016.99748 122.544312 
L 1024.762776 125.869666 
L 1025.424222 128.155482 
L 1017.137181 128.216365 
L 1005.935585 127.246757 
L 1004.978915 126.786567 
" style="fill:#7f2704;stroke:#cccccc;"/>
    <path clip-path="url(#pabb2ad135e)" d="M 485.659278 63.99007 
L 496.329102 62.406169 
L 504.633189 62.300995 
L 505.749966 64.644485 
L 508.889312 62.562132 
L 514.04106 61.127902 
L 522.147438 63.034066 
L 520.033639 64.359976 
L 512.69607 65.506776 
L 507.781009 66.166584 
L 507.018697 67.593847 
L 500.630416 69.031448 
L 494.709578 66.969546 
L 497.822939 64.254353 
L 485.659278 63.99007 
" style="fill:#7f2704;stroke:#cccccc;"/>
    <path clip-path="url(#pabb2ad135e)" d="M 364.782999 292.408815 
L 354.732572 292.539383 
L 348.001124 291.551693 
L 349.246412 287.724083 
L 356.788752 284.903267 
L 362.512728 286.426939 
L 364.92874 287.807458 
L 364.345496 290.189152 
L 364.782999 292.408815 
" style="fill:#7f2704;stroke:#cccccc;"/>
    <path clip-path="url(#pabb2ad135e)" d="M 532.998589 123.481618 
L 546.084143 115.847974 
L 544.605557 111.899909 
L 556.830508 107.307766 
L 574.874619 101.719619 
L 593.065882 100.091671 
L 602.426303 96.867238 
L 613.062799 95.737293 
L 616.862213 99.171849 
L 613.19131 101.878278 
L 593.825369 106.191305 
L 577.13444 110.338931 
L 560.155984 118.617552 
L 552.01063 127.106521 
L 543.443589 135.471663 
L 544.555847 142.696523 
L 555.010732 149.829693 
L 551.782134 150.592652 
L 533.922741 149.462708 
L 532.472399 145.600939 
L 522.57901 143.269136 
L 521.780263 138.57137 
L 527.368949 136.705208 
L 527.182537 131.962497 
L 538.023239 124.545043 
L 532.998589 123.481618 
" style="fill:#7f2704;stroke:#cccccc;"/>
    <path clip-path="url(#pabb2ad135e)" d="M 1021.657147 297.827066 
L 1023.54951 306.209962 
L 1023.409701 314.769272 
L 1025.665568 323.545671 
L 1031.16472 338.950944 
L 1023.074442 336.079338 
L 1019.711684 348.647165 
L 1025.039676 357.560874 
L 1024.885463 363.638935 
L 1020.744858 358.395523 
L 1017.16123 365.127549 
L 1016.149521 357.828753 
L 1016.759032 349.355516 
L 1016.135964 339.970322 
L 1017.400458 333.395158 
L 1017.641947 321.764906 
L 1014.439616 313.214362 
L 1014.923157 301.328817 
L 1019.975485 297.326367 
L 1017.804633 293.2965 
L 1020.237027 292.075315 
L 1021.657147 297.827066 
" style="fill:#7f2704;stroke:#cccccc;"/>
    <path clip-path="url(#pabb2ad135e)" d="M -715.542486 180.398051 
L -716.012527 185.803957 
L -712.326422 187.967833 
L -713.594384 181.647896 
L -698.757979 182.944795 
L -688.057824 191.084357 
L -693.476904 194.875206 
L -702.435994 195.775234 
L -702.571268 204.273833 
L -704.759309 206.083803 
L -709.877891 205.823658 
L -714.04311 202.79124 
L -721.310216 200.254759 
L -722.532487 196.481827 
L -728.082796 195.059161 
L -734.298651 196.187413 
L -737.268599 193.143949 
L -736.081418 189.911312 
L -742.627339 191.977427 
L -740.161865 196.069213 
L -743.262605 199.760486 
L -743.262605 165.109876 
L -729.871903 171.75168 
L -715.542486 180.398051 
" style="fill:#7f2704;stroke:#cccccc;"/>
    <path clip-path="url(#pabb2ad135e)" d="M -736.123339 148.328869 
L -743.262605 148.857864 
L -743.262605 142.912923 
L -742.562326 142.548444 
L -737.92999 142.566622 
L -730.024639 145.054571 
L -730.492658 146.24362 
L -736.123339 148.328869 
" style="fill:#7f2704;stroke:#cccccc;"/>
    <path clip-path="url(#pabb2ad135e)" d="M 423.291564 365.082651 
L 424.731605 362.928643 
L 428.617312 364.7935 
L 430.375133 365.137026 
L 431.084429 366.854656 
L 431.909005 367.119561 
L 431.953434 367.871958 
L 434.627316 369.970041 
L 440.202162 369.448217 
L 439.134813 372.551296 
L 433.151554 374.057889 
L 425.732077 379.089604 
L 422.692715 377.320526 
L 423.897896 373.233577 
L 417.925371 370.687831 
L 418.890759 369.02033 
L 424.123285 366.129398 
L 423.291564 365.082651 
" style="fill:#7f2704;stroke:#cccccc;"/>
    <path clip-path="url(#pabb2ad135e)" d="M 323.308559 71.952721 
L 325.384009 68.980143 
L 333.409138 68.67764 
L 340.301141 71.714059 
L 358.293873 78.199338 
L 344.539927 81.62193 
L 341.502971 88.022581 
L 336.707952 89.664079 
L 334.105182 96.870476 
L 327.518869 97.209334 
L 315.764784 91.904668 
L 320.721913 88.814411 
L 312.529208 86.298369 
L 301.880649 78.954376 
L 297.62962 72.143373 
L 312.530137 69.029023 
L 315.523916 72.073792 
L 323.308559 71.952721 
" style="fill:#fff1e4;stroke:#cccccc;"/>
    <path clip-path="url(#pabb2ad135e)" d="M 410.529701 159.93946 
L 401.230038 163.428773 
L 396.815914 164.230196 
L 399.131376 158.126966 
L 392.117486 154.667915 
L 383.631223 157.61548 
L 380.950846 163.992431 
L 375.73922 167.841615 
L 369.871198 165.739486 
L 362.734163 166.17007 
L 356.66024 161.571635 
L 353.384474 163.869504 
L 349.994037 164.22705 
L 349.192183 169.949587 
L 338.891229 168.556258 
L 337.444559 173.399424 
L 332.195933 173.369984 
L 328.587733 179.558163 
L 323.120496 189.200223 
L 314.633952 201.436348 
L 316.624605 204.407509 
L 314.722639 207.854425 
L 309.300876 207.705654 
L 305.751705 215.863145 
L 306.087812 227.413168 
L 309.580776 231.821031 
L 307.772863 242.046267 
L 303.224976 248.008816 
L 300.815178 253.020755 
L 297.148794 247.683406 
L 286.356673 257.742342 
L 279.069661 259.781097 
L 271.511222 255.351659 
L 269.556721 246.001074 
L 267.828739 225.929048 
L 272.861579 220.33236 
L 287.293534 213.030418 
L 298.084243 204.054233 
L 308.089763 191.932496 
L 321.222484 175.138164 
L 330.376157 168.592664 
L 345.396158 157.683798 
L 357.389789 153.876639 
L 366.38247 154.33846 
L 374.705481 147.133152 
L 384.672023 147.51789 
L 394.485482 145.785218 
L 411.581151 152.149136 
L 404.541559 154.475995 
L 410.529701 159.93946 
" style="fill:#fff1e4;stroke:#cccccc;"/>
    <path clip-path="url(#pabb2ad135e)" d="M 390.342336 68.629405 
L 382.237653 73.313687 
L 366.386425 74.338458 
L 350.266876 72.887598 
L 349.294427 70.491073 
L 341.451286 70.338705 
L 335.47057 66.346369 
L 352.348193 63.917482 
L 360.283976 66.009048 
L 365.811372 63.404422 
L 379.630428 65.577116 
L 390.342336 68.629405 
" style="fill:#fff1e4;stroke:#cccccc;"/>
    <path clip-path="url(#pabb2ad135e)" d="M 375.676042 87.786354 
L 363.467001 91.342977 
L 353.824002 89.324177 
L 357.595807 87.080196 
L 354.293441 84.30053 
L 365.620117 82.558314 
L 367.790394 85.823393 
L 375.676042 87.786354 
" style="fill:#fff1e4;stroke:#cccccc;"/>
    <path clip-path="url(#pabb2ad135e)" d="M -41.796405 728.778753 
L -45.029522 736.738257 
L -46.707936 743.143075 
L -48.802528 746.446838 
L -51.419497 747.068442 
L -52.164863 744.620004 
L -53.387414 744.25639 
L -55.079244 746.614711 
L -57.466023 744.820463 
L -56.072029 741.16275 
L -55.591171 737.184571 
L -54.63581 733.44236 
L -56.781665 728.288391 
L -57.213943 722.337978 
L -54.368619 714.859847 
L -52.512549 715.816749 
L -48.48817 717.87528 
L -42.701209 725.216775 
L -41.796405 728.778753 
" style="fill:#fd9547;stroke:#cccccc;"/>
    <path clip-path="url(#pabb2ad135e)" d="M 274.355981 334.711629 
L 276.935244 336.989047 
L 284.811431 338.590926 
L 282.048015 344.546733 
L 281.354337 350.743226 
L 279.853721 352.228919 
L 277.363427 351.428429 
L 277.539106 353.638429 
L 273.541982 358.525867 
L 273.461204 362.464044 
L 276.070971 361.101278 
L 277.948365 364.915404 
L 277.722976 367.373056 
L 279.331485 370.638839 
L 277.436579 373.287962 
L 278.844554 380.017741 
L 281.807092 381.121167 
L 281.181765 384.896414 
L 276.230268 389.810146 
L 265.450574 387.455196 
L 257.489655 390.277136 
L 256.864327 395.514704 
L 250.528581 396.642177 
L 244.378682 392.707821 
L 242.3917 394.588141 
L 232.330539 390.635356 
L 230.152062 387.253837 
L 232.978462 382.036944 
L 234.019262 364.708652 
L 228.379171 355.580999 
L 224.348013 351.180327 
L 215.995064 347.834989 
L 215.44416 341.492646 
L 222.530497 339.60064 
L 231.708884 341.838281 
L 229.976383 331.993289 
L 235.136039 335.724264 
L 247.861196 328.941899 
L 249.502186 321.814797 
L 254.28224 320.058753 
L 255.073926 323.117334 
L 257.614494 323.260712 
L 260.155628 326.751676 
L 263.969729 330.852557 
L 266.774664 330.17522 
L 271.55613 334.140364 
L 272.778823 334.895458 
L 274.355981 334.711629 
" style="fill:#fd9547;stroke:#cccccc;"/>
    <path clip-path="url(#pabb2ad135e)" d="M 288.346197 394.165647 
L 291.865993 390.844356 
L 292.795228 398.302486 
L 290.990139 405.021253 
L 288.508601 403.250377 
L 287.24326 397.397721 
L 288.346197 394.165647 
" style="fill:#fd9547;stroke:#cccccc;"/>
    <path clip-path="url(#pabb2ad135e)" d="M 300.815178 253.020755 
L 303.224976 248.008816 
L 307.772863 242.046267 
L 309.580776 231.821031 
L 306.087812 227.413168 
L 305.751705 215.863145 
L 309.300876 207.705654 
L 314.722639 207.854425 
L 316.624605 204.407509 
L 314.633952 201.436348 
L 323.120496 189.200223 
L 328.587733 179.558163 
L 332.195933 173.369984 
L 337.444559 173.399424 
L 338.891229 168.556258 
L 349.192183 169.949587 
L 349.994037 164.22705 
L 353.384474 163.869504 
L 360.669792 168.126124 
L 369.201245 174.047771 
L 369.345573 187.441707 
L 371.190204 190.826148 
L 361.788263 193.289194 
L 356.488516 199.357816 
L 357.341774 204.684377 
L 348.647352 211.67754 
L 338.092764 219.158817 
L 334.112587 231.407077 
L 338.002948 237.535253 
L 343.230108 242.359542 
L 338.209978 252.171723 
L 332.525543 254.206433 
L 330.440554 268.807171 
L 327.336513 276.955224 
L 320.706179 276.115182 
L 317.612871 283.013283 
L 311.284751 283.413753 
L 309.54773 275.191539 
L 304.972165 265.322051 
L 300.815178 253.020755 
" style="fill:#feeddc;stroke:#cccccc;"/>
    <path clip-path="url(#pabb2ad135e)" d="M 394.54649 276.391375 
L 400.300687 278.572609 
L 401.077121 280.73182 
L 403.945041 279.693565 
L 409.288285 281.767827 
L 409.823513 285.85073 
L 408.652224 288.197141 
L 412.078815 293.891586 
L 414.303048 295.478184 
L 413.974285 297.049049 
L 417.659875 298.579689 
L 419.234209 300.898682 
L 417.107418 302.800801 
L 412.697343 302.498961 
L 411.645548 303.311613 
L 412.928966 306.198726 
L 414.273238 311.768428 
L 414.27336 311.768449 
L 409.58146 312.284427 
L 407.897538 314.193962 
L 407.545898 318.571486 
L 405.371939 317.730995 
L 400.439649 318.147645 
L 399.007101 316.114059 
L 396.956288 317.630315 
L 394.901237 316.373398 
L 390.596816 316.198782 
L 384.496627 314.111486 
L 378.975444 313.429878 
L 374.741351 313.622922 
L 371.74605 315.980119 
L 369.133459 316.319238 
L 369.029237 312.447132 
L 367.343057 308.417265 
L 370.6208 306.641894 
L 370.652151 303.174753 
L 369.136001 299.866271 
L 368.898749 296.01866 
L 374.18155 296.077764 
L 380.115381 292.801194 
L 381.38383 287.891058 
L 385.864777 285.105973 
L 385.351297 281.210046 
L 388.675078 279.747051 
L 394.54649 276.391375 
" style="fill:#feeddc;stroke:#cccccc;"/>
    <path clip-path="url(#pabb2ad135e)" d="M 414.27336 311.768449 
L 416.314473 312.120072 
L 417.69518 310.141847 
L 419.355094 310.578723 
L 425.022582 309.738455 
L 428.515264 314.662974 
L 427.15022 316.423962 
L 427.602975 319.123874 
L 431.96106 319.545019 
L 433.905319 323.316579 
L 433.786202 325.027768 
L 440.727787 328.0859 
L 444.921491 326.708527 
L 448.2947 330.781542 
L 451.488558 330.687605 
L 459.545124 333.517908 
L 459.60934 336.071698 
L 457.389549 340.625847 
L 458.597281 345.421791 
L 457.737312 348.322205 
L 452.448216 348.959887 
L 449.630935 351.388427 
L 449.458362 355.251994 
L 445.094628 355.947534 
L 441.458466 358.761385 
L 436.341741 359.220059 
L 431.633992 362.462246 
L 431.909005 367.119561 
L 431.084429 366.854656 
L 430.375133 365.137026 
L 428.617312 364.7935 
L 424.731605 362.928643 
L 423.291564 365.082651 
L 422.540479 364.137387 
L 414.044613 361.939073 
L 413.6684 358.695763 
L 408.604209 359.766829 
L 406.575708 364.556509 
L 402.343593 370.984924 
L 399.864596 369.492264 
L 397.296066 370.891661 
L 394.857176 369.289108 
L 396.232953 368.344341 
L 397.18789 365.36037 
L 398.683987 362.587196 
L 398.297324 361.029814 
L 399.440368 360.335846 
L 399.978985 361.539727 
L 403.199958 361.794347 
L 404.646627 361.151168 
L 403.627575 360.269326 
L 404.013674 358.973081 
L 402.105211 356.761958 
L 401.31522 353.125819 
L 399.324284 351.70305 
L 399.716879 348.75571 
L 397.247486 346.415592 
L 394.999245 346.090182 
L 390.971052 343.380382 
L 387.337996 344.24065 
L 386.034525 345.523412 
L 383.728666 345.522063 
L 382.354019 347.554975 
L 378.31933 348.390748 
L 376.453234 349.726096 
L 373.915772 347.60082 
L 370.411793 347.568459 
L 367.030111 346.605264 
L 364.670587 348.46783 
L 364.289573 346.136476 
L 361.255012 343.770514 
L 362.322079 340.264269 
L 363.837665 337.999885 
L 365.030701 338.507326 
L 363.620749 334.598814 
L 368.583826 327.36474 
L 371.29612 326.352554 
L 371.882187 323.912656 
L 369.133459 316.319238 
L 371.74605 315.980119 
L 374.741351 313.622922 
L 378.975444 313.429878 
L 384.496627 314.111486 
L 390.596816 316.198782 
L 394.901237 316.373398 
L 396.956288 317.630315 
L 399.007101 316.114059 
L 400.439649 318.147645 
L 405.371939 317.730995 
L 407.545898 318.571486 
L 407.897538 314.193962 
L 409.58146 312.284427 
L 414.27336 311.768449 
" style="fill:#fdc189;stroke:#cccccc;"/>
    <path clip-path="url(#pabb2ad135e)" d="M 368.898749 296.01866 
L 369.136001 299.866271 
L 370.652151 303.174753 
L 370.6208 306.641894 
L 367.343057 308.417265 
L 369.029237 312.447132 
L 369.133459 316.319238 
L 371.882187 323.912656 
L 371.29612 326.352554 
L 368.583826 327.36474 
L 363.620749 334.598814 
L 365.030701 338.507326 
L 363.837665 337.999885 
L 358.643551 334.656795 
L 354.709129 335.88607 
L 352.128736 334.992991 
L 348.899573 336.857131 
L 346.143218 333.774278 
L 343.896107 334.954787 
L 343.58768 334.429592 
L 341.072248 330.146903 
L 337.008751 329.621484 
L 336.490186 326.8982 
L 332.741894 325.925566 
L 331.925918 328.171523 
L 328.956885 326.372331 
L 329.297793 323.9794 
L 325.211417 323.222733 
L 322.620856 320.422591 
L 320.380523 314.869052 
L 320.806446 311.870473 
L 319.454112 307.218103 
L 317.469673 304.118171 
L 318.993449 301.796705 
L 317.716527 297.370864 
L 321.450697 294.816577 
L 329.980173 290.794351 
L 336.863293 287.851281 
L 342.318101 289.320569 
L 342.730185 291.4418 
L 348.001124 291.551693 
L 354.732572 292.539383 
L 364.782999 292.408815 
L 367.58624 293.339199 
L 368.898749 296.01866 
" style="fill:#fdcb9b;stroke:#cccccc;"/>
    <path clip-path="url(#pabb2ad135e)" d="M 333.348016 346.369072 
L 332.933108 349.923185 
L 329.855051 349.940264 
L 330.913645 351.825303 
L 329.099236 357.424688 
L 328.057306 358.892627 
L 323.277252 359.109267 
L 320.519203 361.082626 
L 316.004644 360.408659 
L 308.1889 358.162478 
L 306.967902 355.137156 
L 301.566475 356.648918 
L 300.93098 358.303384 
L 297.619626 357.066692 
L 294.83079 356.830276 
L 292.357725 355.2466 
L 293.193755 353.117504 
L 292.982205 351.574055 
L 294.631951 351.09448 
L 297.397626 353.509883 
L 298.176037 351.214486 
L 302.996198 351.585291 
L 306.903788 350.025662 
L 309.524005 350.292642 
L 311.228545 352.073406 
L 311.73807 350.595354 
L 310.963331 344.928325 
L 312.92687 343.824 
L 314.853974 339.813909 
L 318.914648 342.613377 
L 321.989315 339.055219 
L 323.91303 338.405748 
L 328.155596 341.06004 
L 330.722432 340.608556 
L 333.2421 342.250887 
L 332.803184 343.355212 
L 333.348016 346.369072 
" style="fill:#ffeedd;stroke:#cccccc;"/>
    <path clip-path="url(#pabb2ad135e)" d="M 361.255012 343.770514 
L 364.289573 346.136476 
L 364.670587 348.46783 
L 361.332401 350.292192 
L 358.745795 356.190917 
L 355.441502 362.089193 
L 351.059409 363.729726 
L 347.648071 363.344763 
L 343.460298 365.630946 
L 343.460226 365.630992 
L 341.417393 366.930337 
L 336.902835 365.257893 
L 332.817024 361.527817 
L 331.080569 360.456976 
L 330.018585 357.520872 
L 329.099236 357.424688 
L 330.913645 351.825303 
L 329.855051 349.940264 
L 332.933108 349.923185 
L 333.348016 346.369072 
L 336.128943 348.595927 
L 338.143886 349.544289 
L 342.731597 348.478617 
L 343.171642 346.732012 
L 345.343341 346.474471 
L 348.005078 345.12429 
L 348.595947 345.680273 
L 351.162501 344.594151 
L 352.444224 342.547755 
L 354.235473 342.017167 
L 360.088808 344.660222 
L 361.255012 343.770514 
" style="fill:#feeddc;stroke:#cccccc;"/>
    <path clip-path="url(#pabb2ad135e)" d="M 386.034525 345.523412 
L 387.337996 344.24065 
L 390.971052 343.380382 
L 394.999245 346.090182 
L 397.247486 346.415592 
L 399.716879 348.75571 
L 399.324284 351.70305 
L 401.31522 353.125819 
L 402.105211 356.761958 
L 404.013674 358.973081 
L 403.627575 360.269326 
L 404.646627 361.151168 
L 403.199958 361.794347 
L 399.978985 361.539727 
L 399.440368 360.335846 
L 398.297324 361.029814 
L 398.683987 362.587196 
L 397.18789 365.36037 
L 396.232953 368.344341 
L 394.857176 369.289108 
L 393.878231 365.320368 
L 394.455261 361.606697 
L 394.280429 357.789201 
L 391.127525 352.617254 
L 389.393329 348.949877 
L 387.700652 346.371095 
L 386.034525 345.523412 
" style="fill:#fff3e6;stroke:#cccccc;"/>
    <path clip-path="url(#pabb2ad135e)" d="M 394.857176 369.289108 
L 397.296066 370.891661 
L 399.864596 369.492264 
L 402.343593 370.984924 
L 402.470692 373.228184 
L 399.820253 375.099739 
L 398.160057 374.285091 
L 396.630914 384.777981 
L 393.417285 383.864677 
L 389.439932 380.702944 
L 383.005614 382.725069 
L 380.295297 384.943383 
L 372.268568 384.485832 
L 368.068933 383.129359 
L 365.951181 383.766245 
L 364.378824 380.190334 
L 363.377849 378.674302 
L 364.64432 377.206363 
L 363.295941 376.123386 
L 361.580103 378.072474 
L 358.393307 375.545604 
L 357.964277 371.960254 
L 354.634564 369.914533 
L 354.021664 367.146977 
L 351.059409 363.729726 
L 355.441502 362.089193 
L 358.745795 356.190917 
L 361.332401 350.292192 
L 364.670587 348.46783 
L 367.030111 346.605264 
L 370.411793 347.568459 
L 373.915772 347.60082 
L 376.453234 349.726096 
L 378.31933 348.390748 
L 382.354019 347.554975 
L 383.728666 345.522063 
L 386.034525 345.523412 
L 387.700652 346.371095 
L 389.393329 348.949877 
L 391.127525 352.617254 
L 394.280429 357.789201 
L 394.455261 361.606697 
L 393.878231 365.320368 
L 394.857176 369.289108 
" style="fill:#fee2c6;stroke:#cccccc;"/>
    <path clip-path="url(#pabb2ad135e)" d="M 385.351297 281.210046 
L 385.864777 285.105973 
L 381.38383 287.891058 
L 380.115381 292.801194 
L 374.18155 296.077764 
L 368.898749 296.01866 
L 367.58624 293.339199 
L 364.782999 292.408815 
L 364.345496 290.189152 
L 364.92874 287.807458 
L 362.512728 286.426939 
L 356.788752 284.903267 
L 355.626502 277.59211 
L 361.886553 274.924335 
L 371.052937 275.482116 
L 376.422448 274.622297 
L 377.188996 276.431377 
L 380.097305 276.990057 
L 385.351297 281.210046 
" style="fill:#fff3e7;stroke:#cccccc;"/>
    <path clip-path="url(#pabb2ad135e)" d="M 389.690176 265.037543 
L 392.323668 267.040341 
L 392.789698 271.258082 
L 394.54649 276.391375 
L 388.675078 279.747051 
L 385.351297 281.210046 
L 380.097305 276.990057 
L 377.188996 276.431377 
L 376.422448 274.622297 
L 371.052937 275.482116 
L 361.886553 274.924335 
L 355.626502 277.59211 
L 355.815738 271.044588 
L 358.501764 265.582514 
L 363.652948 262.612251 
L 367.993239 269.110558 
L 372.378156 268.941336 
L 373.428277 262.263919 
L 378.083491 260.726763 
L 380.478602 261.793334 
L 385.182962 265.021362 
L 389.690176 265.037543 
" style="fill:#fff4e9;stroke:#cccccc;"/>
    <path clip-path="url(#pabb2ad135e)" d="M 393.477515 247.634993 
L 393.477477 247.635022 
L 394.300482 249.153144 
L 390.411444 254.16518 
L 392.032188 262.277178 
L 389.690176 265.037543 
L 385.182962 265.021362 
L 380.478602 261.793334 
L 378.083491 260.726763 
L 373.428277 262.263919 
L 374.062642 257.132424 
L 372.052783 258.228659 
L 368.584108 255.137716 
L 368.109888 250.141059 
L 375.020687 247.71779 
L 381.907195 246.45458 
L 387.837072 247.892181 
L 393.477445 247.634865 
L 393.477515 247.634993 
" style="fill:#fff5ea;stroke:#cccccc;"/>
    <path clip-path="url(#pabb2ad135e)" d="M 317.716527 297.370864 
L 318.993449 301.796705 
L 317.469673 304.118171 
L 319.454112 307.218103 
L 320.806446 311.870473 
L 320.380523 314.869052 
L 322.620856 320.422591 
L 320.181684 321.330053 
L 318.740381 320.330452 
L 317.369688 321.986041 
L 313.444869 323.670621 
L 311.415521 325.837697 
L 307.443535 327.7315 
L 308.400449 330.316575 
L 308.978891 333.984401 
L 311.768009 336.074844 
L 314.853974 339.813909 
L 312.92687 343.824 
L 310.963331 344.928325 
L 311.73807 350.595354 
L 311.228545 352.073406 
L 309.524005 350.292642 
L 306.903788 350.025662 
L 302.996198 351.585291 
L 298.176037 351.214486 
L 297.397626 353.509883 
L 294.631951 351.09448 
L 292.982205 351.574055 
L 287.125199 348.914594 
L 286.003055 350.804128 
L 281.354337 350.743226 
L 282.048015 344.546733 
L 284.811431 338.590926 
L 276.935244 336.989047 
L 274.355981 334.711629 
L 274.664408 330.898402 
L 273.573051 328.934258 
L 274.193859 323.057556 
L 273.275639 313.943387 
L 276.559031 313.939792 
L 277.944411 310.665918 
L 279.306348 302.702369 
L 278.284754 299.761546 
L 279.352103 297.919655 
L 283.920326 297.446822 
L 284.934011 299.364672 
L 288.645303 295.076815 
L 287.395778 291.816425 
L 287.14497 286.884041 
L 291.275971 288.031065 
L 294.773172 286.706953 
L 294.869767 290.068247 
L 300.392927 292.095091 
L 300.334744 295.181989 
L 305.892079 293.548648 
L 308.964769 291.166505 
L 315.135569 294.600836 
L 317.716527 297.370864 
" style="fill:#f77a27;stroke:#cccccc;"/>
    <path clip-path="url(#pabb2ad135e)" d="M 364.378824 380.190334 
L 365.951181 383.766245 
L 368.068933 383.129359 
L 372.268568 384.485832 
L 380.295297 384.943383 
L 383.005614 382.725069 
L 389.439932 380.702944 
L 393.417285 383.864677 
L 396.630914 384.777981 
L 393.794346 388.38131 
L 391.798326 394.602523 
L 393.562743 399.564797 
L 388.856971 398.398221 
L 383.289186 401.134314 
L 383.22959 405.46577 
L 378.261712 406.286935 
L 374.410894 403.247905 
L 370.035297 405.638138 
L 365.992417 405.386664 
L 365.604342 399.634913 
L 362.866911 396.843311 
L 363.765925 395.616058 
L 363.173361 394.581399 
L 364.09271 391.813843 
L 366.176287 389.094604 
L 363.520765 385.340257 
L 363.030445 382.163467 
L 364.378824 380.190334 
" style="fill:#ffefe0;stroke:#cccccc;"/>
    <path clip-path="url(#pabb2ad135e)" d="M 384.23452 457.902804 
L 383.551292 460.468552 
L 375.680754 461.207915 
L 375.735548 459.772786 
L 369.067367 458.076745 
L 370.078511 454.380154 
L 373.066468 457.311089 
L 377.320614 456.815558 
L 381.388066 457.432893 
L 381.255883 458.946452 
L 384.23452 457.902804 
" style="fill:#feeddb;stroke:#cccccc;"/>
    <path clip-path="url(#pabb2ad135e)" d="M 365.992417 405.386664 
L 370.035297 405.638138 
L 374.410894 403.247905 
L 378.261712 406.286935 
L 383.22959 405.46577 
L 383.289186 401.134314 
L 385.95177 403.437352 
L 384.259658 408.880774 
L 382.960705 409.856104 
L 379.63071 409.6089 
L 376.778608 408.786836 
L 370.159572 411.047625 
L 373.948253 415.936861 
L 371.171562 417.354461 
L 368.127399 417.363225 
L 365.236037 412.883898 
L 364.210206 414.792533 
L 365.431487 419.987178 
L 368.165811 424.068958 
L 366.105677 425.974672 
L 369.149558 429.983414 
L 371.855073 432.505789 
L 371.936981 437.419745 
L 366.881263 435.11491 
L 368.493444 439.550864 
L 365.022793 440.463944 
L 367.095637 448.139614 
L 363.465406 448.248383 
L 358.983611 444.465046 
L 356.933927 437.506941 
L 355.977577 431.720131 
L 353.845985 427.722176 
L 351.045852 422.762375 
L 350.675852 420.28562 
L 353.217268 416.067205 
L 353.545184 413.240545 
L 355.321464 411.979357 
L 355.431051 409.694298 
L 359.006206 408.924147 
L 361.089784 407.022927 
L 364.051756 407.191475 
L 364.950636 405.675372 
L 365.992417 405.386664 
" style="fill:#feeddb;stroke:#cccccc;"/>
    <path clip-path="url(#pabb2ad135e)" d="M 355.431051 409.694298 
L 355.321464 411.979357 
L 353.545184 413.240545 
L 353.217268 416.067205 
L 350.675852 420.28562 
L 349.746617 419.676825 
L 349.637312 417.763246 
L 346.609813 414.842873 
L 346.13418 410.698843 
L 346.595973 404.764161 
L 347.341903 402.064249 
L 346.422271 400.693843 
L 346.422267 400.693815 
L 346.054531 397.926287 
L 348.424222 393.6427 
L 348.771626 395.279187 
L 350.242344 394.509132 
L 351.406813 396.843311 
L 352.714158 397.733854 
L 353.081974 400.886395 
L 353.081979 400.886437 
L 352.387453 403.846362 
L 353.163604 407.576438 
L 355.431051 409.694298 
" style="fill:#fff3e7;stroke:#cccccc;"/>
    <path clip-path="url(#pabb2ad135e)" d="M 331.080569 360.456976 
L 332.817024 361.527817 
L 336.902835 365.257893 
L 341.417393 366.930337 
L 343.460226 365.630992 
L 344.78806 369.000105 
L 346.524515 371.478882 
L 344.420311 374.751624 
L 341.948384 372.826366 
L 338.169306 372.946821 
L 333.470878 371.502703 
L 330.917317 371.695522 
L 329.732471 373.500108 
L 327.771474 371.502703 
L 326.6273 375.112773 
L 329.303441 379.179496 
L 330.488287 381.874913 
L 333.000894 385.123617 
L 335.084471 387.049108 
L 337.147995 390.682775 
L 341.985473 393.97536 
L 341.38435 395.454019 
L 341.384347 395.454027 
L 336.246439 392.235887 
L 333.076588 389.104717 
L 328.077642 386.519643 
L 323.481458 380.11842 
L 324.584395 379.468499 
L 322.092406 375.810562 
L 321.990162 372.874458 
L 318.47658 371.502703 
L 316.801414 375.25705 
L 315.187539 372.344993 
L 315.310119 369.325065 
L 315.505004 369.184384 
L 319.314021 369.481477 
L 320.314997 368.013538 
L 322.174032 369.433385 
L 324.318899 369.601933 
L 324.298563 367.171248 
L 326.19827 366.280866 
L 326.729544 362.76743 
L 331.080569 360.456976 
" style="fill:#fff2e5;stroke:#cccccc;"/>
    <path clip-path="url(#pabb2ad135e)" d="M 292.982205 351.574055 
L 293.193755 353.117504 
L 292.357725 355.2466 
L 294.83079 356.830276 
L 297.619626 357.066692 
L 297.186077 360.63249 
L 294.778256 362.099531 
L 290.733964 361.009588 
L 289.550248 364.517181 
L 286.946695 364.7936 
L 285.999383 363.415103 
L 282.935167 366.364915 
L 280.29998 366.778419 
L 277.948365 364.915404 
L 276.070971 361.101278 
L 273.461204 362.464044 
L 273.541982 358.525867 
L 277.539106 353.638429 
L 277.363427 351.428429 
L 279.853721 352.228919 
L 281.354337 350.743226 
L 286.003055 350.804128 
L 287.125199 348.914594 
L 292.982205 351.574055 
" style="fill:#ffeede;stroke:#cccccc;"/>
    <path clip-path="url(#pabb2ad135e)" d="M 273.573051 328.934258 
L 274.664408 330.898402 
L 274.355981 334.711629 
L 272.778823 334.895458 
L 271.55613 334.140364 
L 272.148412 329.262364 
L 273.573051 328.934258 
" style="fill:#fff5eb;stroke:#cccccc;"/>
    <path clip-path="url(#pabb2ad135e)" d="M 274.193859 323.057556 
L 273.573051 328.934258 
L 272.148412 329.262364 
L 271.55613 334.140364 
L 266.774664 330.17522 
L 263.969729 330.852557 
L 260.155628 326.751676 
L 257.614494 323.260712 
L 255.073926 323.117334 
L 254.28224 320.058753 
L 258.662355 318.342936 
L 258.662576 318.342973 
L 258.662355 318.34316 
L 262.663716 319.025891 
L 267.729884 317.218834 
L 271.18952 321.025993 
L 274.193859 323.057556 
" style="fill:#feecd9;stroke:#cccccc;"/>
    <path clip-path="url(#pabb2ad135e)" d="M 278.284754 299.761546 
L 279.306348 302.702369 
L 277.944411 310.665918 
L 276.559031 313.939792 
L 273.275639 313.943387 
L 274.193859 323.057556 
L 271.18952 321.025993 
L 267.729884 317.218834 
L 262.663716 319.025891 
L 258.662355 318.34316 
L 258.662576 318.342973 
L 261.47887 315.953152 
L 266.265138 303.156774 
L 273.743081 299.515916 
L 278.284754 299.761546 
" style="fill:#fee7d0;stroke:#cccccc;"/>
    <path clip-path="url(#pabb2ad135e)" d="M 191.16344 400.667549 
L 193.14675 398.457325 
L 195.377197 397.189396 
L 196.747325 401.447589 
L 199.975641 401.437251 
L 200.911372 400.338993 
L 204.096192 400.643054 
L 205.623923 405.005522 
L 203.098606 407.360247 
L 203.028136 414.146209 
L 202.140561 415.419082 
L 201.920962 419.529852 
L 199.559603 420.245843 
L 201.749096 425.460039 
L 200.240289 431.174486 
L 202.124886 433.760234 
L 201.37486 436.124848 
L 199.349325 439.386362 
L 199.805046 442.266283 
L 197.608492 444.523476 
L 194.727015 443.300492 
L 191.906546 444.257844 
L 192.741446 437.451657 
L 192.228248 432.103521 
L 189.78258 431.301234 
L 188.475719 428.005337 
L 188.91068 422.311565 
L 191.089723 419.154102 
L 191.477516 415.638419 
L 192.618018 410.408267 
L 192.49685 406.723137 
L 191.404081 403.599608 
L 191.16344 400.667549 
" style="fill:#feeddb;stroke:#cccccc;"/>
    <path clip-path="url(#pabb2ad135e)" d="M 199.805046 442.266283 
L 199.349325 439.386362 
L 201.37486 436.124848 
L 202.124886 433.760234 
L 200.240289 431.174486 
L 201.749096 425.460039 
L 199.559603 420.245843 
L 201.920962 419.529852 
L 202.140561 415.419082 
L 203.028136 414.146209 
L 203.098606 407.360247 
L 205.623923 405.005522 
L 204.096192 400.643054 
L 200.911372 400.338993 
L 199.975641 401.437251 
L 196.747325 401.447589 
L 195.377197 397.189396 
L 193.14675 398.457325 
L 191.16344 400.667549 
L 191.438822 394.473079 
L 189.206397 390.699629 
L 196.938539 384.422458 
L 203.626773 385.991751 
L 210.964907 385.936692 
L 216.780536 387.42216 
L 221.318678 386.965957 
L 230.152062 387.253837 
L 232.330539 390.635356 
L 242.3917 394.588141 
L 244.378682 392.707821 
L 250.528581 396.642177 
L 256.864327 395.514704 
L 257.156655 400.567095 
L 251.977228 406.359972 
L 244.97407 408.198267 
L 244.486575 411.124258 
L 241.127206 415.946075 
L 239.020751 423.025534 
L 241.152343 427.995898 
L 237.990966 431.876319 
L 236.808945 437.529863 
L 232.682463 439.263209 
L 228.812438 445.950963 
L 221.874807 446.083554 
L 216.665441 445.918827 
L 213.24224 448.990218 
L 211.154708 452.276677 
L 208.480544 451.555067 
L 206.456845 448.616492 
L 204.907366 443.613317 
L 199.805046 442.266283 
" style="fill:#fdb77a;stroke:#cccccc;"/>
    <path clip-path="url(#pabb2ad135e)" d="M 206.668959 296.409467 
L 207.570233 302.623039 
L 203.438949 310.390398 
L 193.749765 315.529085 
L 186.013387 314.214412 
L 190.444907 305.132604 
L 187.590545 296.289461 
L 195.026686 289.47788 
L 199.157688 285.415203 
L 200.28435 290.075214 
L 199.157688 294.736124 
L 202.537817 294.616567 
L 206.668959 296.409467 
" style="fill:#fff1e4;stroke:#cccccc;"/>
    <path clip-path="url(#pabb2ad135e)" d="M 297.619626 357.066692 
L 300.93098 358.303384 
L 301.566475 356.648918 
L 306.967902 355.137156 
L 308.1889 358.162478 
L 316.004644 360.408659 
L 315.412363 364.692471 
L 316.721483 368.39558 
L 312.370741 367.128549 
L 307.927076 370.215447 
L 308.229289 374.532969 
L 307.560184 377.010847 
L 309.351715 381.438936 
L 314.476631 385.819382 
L 317.22536 393.009859 
L 323.307191 400.018977 
L 327.590146 399.965267 
L 328.922144 401.887611 
L 327.388765 403.620283 
L 332.284055 406.764262 
L 336.296713 409.394957 
L 340.983561 413.930917 
L 341.549576 415.555269 
L 340.528264 418.669808 
L 337.494834 414.608929 
L 332.746413 413.17762 
L 330.446203 418.803523 
L 334.396441 422.027731 
L 333.747954 426.566387 
L 331.46469 427.082144 
L 328.545366 434.541847 
L 326.266904 435.211993 
L 326.288087 432.552758 
L 327.403169 427.887803 
L 328.591122 426.029956 
L 326.456705 420.989476 
L 324.788601 416.603412 
L 322.519742 415.519761 
L 320.906148 411.765863 
L 317.393978 410.18466 
L 315.029089 406.688753 
L 310.985079 406.125129 
L 306.714269 402.198638 
L 301.714475 396.537453 
L 297.998099 391.527312 
L 296.293277 382.929349 
L 293.573922 381.918062 
L 289.127432 379.047355 
L 286.611154 380.22247 
L 283.453166 384.258854 
L 281.181765 384.896414 
L 281.807092 381.121167 
L 278.844554 380.017741 
L 277.436579 373.287962 
L 279.331485 370.638839 
L 277.722976 367.373056 
L 277.948365 364.915404 
L 280.29998 366.778419 
L 282.935167 366.364915 
L 285.999383 363.415103 
L 286.946695 364.7936 
L 289.550248 364.517181 
L 290.733964 361.009588 
L 294.778256 362.099531 
L 297.186077 360.63249 
L 297.619626 357.066692 
" style="fill:#fd9e54;stroke:#cccccc;"/>
    <path clip-path="url(#pabb2ad135e)" d="M 321.223049 433.167845 
L 325.372127 432.408705 
L 323.403786 439.25467 
L 324.221739 441.949413 
L 323.074458 446.421999 
L 318.894594 443.146102 
L 316.115362 442.207628 
L 308.486877 437.785607 
L 309.251731 433.319987 
L 315.647637 434.115084 
L 321.223049 433.167845 
" style="fill:#fd9e54;stroke:#cccccc;"/>
    <path clip-path="url(#pabb2ad135e)" d="M 288.149335 409.196295 
L 290.882246 406.499979 
L 294.161402 412.675123 
L 293.393724 424.178851 
L 290.908514 423.630059 
L 288.679196 426.533802 
L 286.609741 424.226943 
L 286.390849 413.733603 
L 285.143301 408.761217 
L 288.149335 409.196295 
" style="fill:#fd9e54;stroke:#cccccc;"/>
    <path clip-path="url(#pabb2ad135e)" d="M 294.773172 286.706953 
L 291.275971 288.031065 
L 287.14497 286.884041 
L 284.926385 282.057055 
L 284.760591 273.165594 
L 285.671186 270.81761 
L 287.239023 268.20804 
L 292.054382 267.668237 
L 293.973295 265.26879 
L 298.370075 262.815408 
L 298.184793 267.288443 
L 296.566398 270.121395 
L 297.222229 272.557024 
L 300.185614 273.873495 
L 298.849945 277.15456 
L 297.222229 276.209793 
L 293.28696 282.472132 
L 294.773172 286.706953 
" style="fill:#fff1e3;stroke:#cccccc;"/>
    <path clip-path="url(#pabb2ad135e)" d="M 308.158396 276.893423 
L 309.902478 281.254543 
L 306.62304 288.299393 
L 300.903583 283.386561 
L 300.140424 279.776266 
L 308.158396 276.893423 
" style="fill:#fff1e3;stroke:#cccccc;"/>
    <path clip-path="url(#pabb2ad135e)" d="M 206.668959 296.409467 
L 202.537817 294.616567 
L 199.157688 294.736124 
L 200.28435 290.075214 
L 199.157688 285.415203 
L 203.739609 285.056533 
L 209.598169 290.433883 
L 206.668959 296.409467 
" style="fill:#fd994d;stroke:#cccccc;"/>
    <path clip-path="url(#pabb2ad135e)" d="M 223.634455 300.436609 
L 223.644026 300.437535 
L 224.447857 295.388067 
L 220.787591 290.030892 
L 220.703942 289.908464 
L 214.067818 288.378049 
L 212.765053 286.024222 
L 214.751329 282.137509 
L 212.953866 279.741208 
L 210.011099 283.853775 
L 209.69081 275.47043 
L 206.930783 271.0347 
L 208.915647 262.042784 
L 213.161461 254.987596 
L 217.52576 255.67617 
L 224.119941 254.944223 
L 218.278186 264.354811 
L 223.846678 263.16329 
L 229.835444 263.208686 
L 228.410522 270.295337 
L 223.496873 278.090338 
L 229.148262 278.645197 
L 229.581867 279.559277 
L 234.449987 289.821718 
L 238.191218 291.218642 
L 241.555106 301.128357 
L 243.112775 304.564036 
L 249.734636 306.220749 
L 249.070331 311.783053 
L 246.286015 314.333519 
L 248.468447 318.833073 
L 243.551973 323.38791 
L 236.239824 323.307456 
L 226.934761 325.699038 
L 224.386284 323.986817 
L 220.772576 328.061854 
L 215.716576 327.074838 
L 211.876913 330.395905 
L 208.971712 328.659188 
L 216.987425 319.523894 
L 221.879891 317.645147 
L 221.836883 317.637845 
L 213.301552 316.188669 
L 211.755181 312.727595 
L 217.466447 310.031729 
L 214.473123 305.346773 
L 215.511664 299.649855 
L 223.634455 300.436609 
" style="fill:#fd994d;stroke:#cccccc;"/>
    <path clip-path="url(#pabb2ad135e)" d="M 161.245454 186.921232 
L 159.983219 192.549831 
L 166.158821 198.482266 
L 159.052996 205.114961 
L 143.286924 211.075712 
L 138.576633 212.66186 
L 131.381132 211.381121 
L 116.130941 208.627948 
L 121.51175 204.784158 
L 109.615561 200.530909 
L 119.293165 198.844981 
L 119.058032 196.291144 
L 107.58706 194.26812 
L 111.279994 188.603114 
L 119.563604 187.316308 
L 128.082488 193.216382 
L 136.38714 188.480636 
L 143.264046 190.939862 
L 152.177361 186.304571 
L 161.245454 186.921232 
" style="fill:#fff5eb;stroke:#cccccc;"/>
    <path clip-path="url(#pabb2ad135e)" d="M 316.004644 360.408659 
L 320.519203 361.082626 
L 323.277252 359.109267 
L 328.057306 358.892627 
L 329.099236 357.424688 
L 330.018585 357.520872 
L 331.080569 360.456976 
L 326.729544 362.76743 
L 326.19827 366.280866 
L 324.298563 367.171248 
L 324.318899 369.601933 
L 322.174032 369.433385 
L 320.314997 368.013538 
L 319.314021 369.481477 
L 315.505004 369.184384 
L 316.721483 368.39558 
L 315.412363 364.692471 
L 316.004644 360.408659 
" style="fill:#fff4e9;stroke:#cccccc;"/>
    <path clip-path="url(#pabb2ad135e)" d="M 396.815914 164.230196 
L 396.018014 170.319942 
L 404.388475 176.115292 
L 399.34462 182.673376 
L 405.701439 192.573908 
L 402.021891 200.030434 
L 406.942319 206.503346 
L 404.707917 212.171048 
L 412.798195 218.130001 
L 410.74258 222.565731 
L 405.665679 227.59003 
L 393.963259 238.692584 
L 393.96327 238.692592 
L 393.963246 238.692614 
L 384.044154 239.38456 
L 374.432642 242.573485 
L 365.54051 244.408184 
L 362.376308 239.663225 
L 357.082774 236.808249 
L 358.299536 228.239726 
L 355.645143 220.393936 
L 358.251238 215.328961 
L 363.206971 209.866213 
L 375.710976 200.433376 
L 379.359566 198.614857 
L 378.791009 194.936469 
L 371.190204 190.826148 
L 369.345573 187.441707 
L 369.201245 174.047771 
L 360.669792 168.126124 
L 353.384474 163.869504 
L 356.66024 161.571635 
L 362.734163 166.17007 
L 369.871198 165.739486 
L 375.73922 167.841615 
L 380.950846 163.992431 
L 383.631223 157.61548 
L 392.117486 154.667915 
L 399.131376 158.126966 
L 396.815914 164.230196 
" style="fill:#fff1e3;stroke:#cccccc;"/>
    <path clip-path="url(#pabb2ad135e)" d="M 363.837665 337.999885 
L 362.322079 340.264269 
L 361.255012 343.770514 
L 360.088808 344.660222 
L 354.235473 342.017167 
L 352.444224 342.547755 
L 351.162501 344.594151 
L 348.595947 345.680273 
L 348.005078 345.12429 
L 345.343341 346.474471 
L 343.171642 346.732012 
L 342.731597 348.478617 
L 338.143886 349.544289 
L 336.128943 348.595927 
L 333.348016 346.369072 
L 332.803184 343.355212 
L 333.2421 342.250887 
L 334.016557 340.337531 
L 336.437935 340.484954 
L 338.304314 339.585134 
L 338.452031 338.776104 
L 339.49848 338.363049 
L 339.856617 336.384073 
L 341.110943 336.005852 
L 341.957987 334.440154 
L 343.58768 334.429592 
L 343.896107 334.954787 
L 346.143218 333.774278 
L 348.899573 336.857131 
L 352.128736 334.992991 
L 354.709129 335.88607 
L 358.643551 334.656795 
L 363.837665 337.999885 
" style="fill:#fff1e3;stroke:#cccccc;"/>
    <path clip-path="url(#pabb2ad135e)" d="M 322.620856 320.422591 
L 325.211417 323.222733 
L 329.297793 323.9794 
L 328.956885 326.372331 
L 331.925918 328.171523 
L 332.741894 325.925566 
L 336.490186 326.8982 
L 337.008751 329.621484 
L 341.072248 330.146903 
L 343.58768 334.429592 
L 341.957987 334.440154 
L 341.110943 336.005852 
L 339.856617 336.384073 
L 339.49848 338.363049 
L 338.452031 338.776104 
L 338.304314 339.585134 
L 336.437935 340.484954 
L 334.016557 340.337531 
L 333.2421 342.250887 
L 330.722432 340.608556 
L 328.155596 341.06004 
L 323.91303 338.405748 
L 321.989315 339.055219 
L 318.914648 342.613377 
L 314.853974 339.813909 
L 311.768009 336.074844 
L 308.978891 333.984401 
L 308.400449 330.316575 
L 307.443535 327.7315 
L 311.415521 325.837697 
L 313.444869 323.670621 
L 317.369688 321.986041 
L 318.740381 320.330452 
L 320.181684 321.330053 
L 322.620856 320.422591 
" style="fill:#feeddb;stroke:#cccccc;"/>
    <path clip-path="url(#pabb2ad135e)" d="M 341.985473 393.97536 
L 337.147995 390.682775 
L 335.084471 387.049108 
L 333.000894 385.123617 
L 330.488287 381.874913 
L 329.303441 379.179496 
L 326.6273 375.112773 
L 327.771474 371.502703 
L 329.732471 373.500108 
L 330.917317 371.695522 
L 333.470878 371.502703 
L 338.169306 372.946821 
L 341.948384 372.826366 
L 344.420311 374.751624 
L 344.420285 374.751664 
L 346.401836 374.727571 
L 345.033142 378.553906 
L 347.668378 381.899003 
L 346.871713 385.990093 
L 345.584675 386.375049 
L 344.56332 387.169227 
L 342.786073 389.190723 
L 341.985473 393.97536 
" style="fill:#fff2e6;stroke:#cccccc;"/>
    <path clip-path="url(#pabb2ad135e)" d="M 362.866911 396.843311 
L 365.604342 399.634913 
L 365.992417 405.386664 
L 364.950636 405.675372 
L 364.051756 407.191475 
L 361.089784 407.022927 
L 359.006206 408.924147 
L 355.431051 409.694298 
L 353.163604 407.576438 
L 352.387453 403.846362 
L 353.081979 400.886437 
L 353.081974 400.886395 
L 353.776451 400.958576 
L 354.021583 399.177742 
L 357.249234 397.830136 
L 358.473177 397.495936 
L 360.333905 396.987861 
L 362.866911 396.843311 
" style="fill:#fff4e8;stroke:#cccccc;"/>
    <path clip-path="url(#pabb2ad135e)" d="M 343.460226 365.630992 
L 343.460298 365.630946 
L 347.648071 363.344763 
L 351.059409 363.729726 
L 354.021664 367.146977 
L 354.634564 369.914533 
L 357.964277 371.960254 
L 358.393307 375.545604 
L 361.580103 378.072474 
L 363.295941 376.123386 
L 364.64432 377.206363 
L 363.377849 378.674302 
L 364.378824 380.190334 
L 363.030445 382.163467 
L 363.520765 385.340257 
L 366.176287 389.094604 
L 364.09271 391.813843 
L 363.173361 394.581399 
L 363.765925 395.616058 
L 362.866911 396.843311 
L 360.333905 396.987861 
L 358.473177 397.495936 
L 358.291085 396.843394 
L 358.94477 395.80864 
L 359.557627 393.690948 
L 358.781349 393.739046 
L 357.719056 392.126685 
L 356.820239 391.71755 
L 356.105258 390.333805 
L 355.083821 389.792336 
L 354.307542 388.565018 
L 353.327015 389.046343 
L 352.571178 391.93412 
L 351.263754 392.559826 
L 351.713135 391.813832 
L 349.629487 390.008906 
L 347.833657 389.071827 
L 347.03508 387.867122 
L 345.584675 386.375049 
L 346.871713 385.990093 
L 347.668378 381.899003 
L 345.033142 378.553906 
L 346.401836 374.727571 
L 344.420285 374.751664 
L 344.420311 374.751624 
L 346.524515 371.478882 
L 344.78806 369.000105 
L 343.460226 365.630992 
" style="fill:#ffefe0;stroke:#cccccc;"/>
    <path clip-path="url(#pabb2ad135e)" d="M 350.242344 394.509132 
L 348.771626 395.279187 
L 348.424222 393.6427 
L 346.054531 397.926287 
L 346.422267 400.693815 
L 345.278274 400.020018 
L 343.746159 397.180339 
L 341.38435 395.454019 
L 341.985473 393.97536 
L 342.786073 389.190723 
L 344.56332 387.169227 
L 345.584675 386.375049 
L 347.03508 387.867122 
L 347.833657 389.071827 
L 349.629487 390.008906 
L 351.713135 391.813832 
L 351.263754 392.559826 
L 350.242344 394.509132 
" style="fill:#fff5eb;stroke:#cccccc;"/>
    <path clip-path="url(#pabb2ad135e)" d="M 353.081974 400.886395 
L 352.714158 397.733854 
L 351.406813 396.843311 
L 350.242344 394.509132 
L 351.263754 392.559826 
L 352.571178 391.93412 
L 353.327015 389.046343 
L 354.307542 388.565018 
L 355.083821 389.792336 
L 356.105258 390.333805 
L 356.820239 391.71755 
L 357.719056 392.126685 
L 358.781349 393.739046 
L 359.557627 393.690948 
L 358.94477 395.80864 
L 358.291085 396.843394 
L 358.473177 397.495936 
L 357.249234 397.830136 
L 354.021583 399.177742 
L 353.776451 400.958576 
L 353.081974 400.886395 
" style="fill:#fff4e9;stroke:#cccccc;"/>
   </g>
   <g id="PathCollection_1">
    <defs>
     <path d="M 0 0.866025 
C 0.229673 0.866025 0.449969 0.774776 0.612372 0.612372 
C 0.774776 0.449969 0.866025 0.229673 0.866025 0 
C 0.866025 -0.229673 0.774776 -0.449969 0.612372 -0.612372 
C 0.449969 -0.774776 0.229673 -0.866025 0 -0.866025 
C -0.229673 -0.866025 -0.449969 -0.774776 -0.612372 -0.612372 
C -0.774776 -0.449969 -0.866025 -0.229673 -0.866025 0 
C -0.866025 0.229673 -0.774776 0.449969 -0.612372 0.612372 
C -0.449969 0.774776 -0.229673 0.866025 0 0.866025 
z
" id="m1d7c3ddee6" style="stroke:#000000;"/>
    </defs>
    <g clip-path="url(#pabb2ad135e)">
     <use style="stroke:#000000;" x="308.609211" xlink:href="#m1d7c3ddee6" y="400.470013"/>
     <use style="stroke:#000000;" x="308.545721" xlink:href="#m1d7c3ddee6" y="382.789413"/>
     <use style="stroke:#000000;" x="308.761844" xlink:href="#m1d7c3ddee6" y="400.516812"/>
     <use style="stroke:#000000;" x="292.558312" xlink:href="#m1d7c3ddee6" y="354.977724"/>
     <use style="stroke:#000000;" x="329.98682" xlink:href="#m1d7c3ddee6" y="345.686623"/>
     <use style="stroke:#000000;" x="274.048172" xlink:href="#m1d7c3ddee6" y="333.425623"/>
     <use style="stroke:#000000;" x="281.027244" xlink:href="#m1d7c3ddee6" y="384.498058"/>
     <use style="stroke:#000000;" x="248.832568" xlink:href="#m1d7c3ddee6" y="395.279987"/>
     <use style="stroke:#000000;" x="253.286499" xlink:href="#m1d7c3ddee6" y="339.888127"/>
     <use style="stroke:#000000;" x="319.876982" xlink:href="#m1d7c3ddee6" y="364.357524"/>
     <use style="stroke:#000000;" x="334.098518" xlink:href="#m1d7c3ddee6" y="346.138401"/>
     <use style="stroke:#000000;" x="345.845859" xlink:href="#m1d7c3ddee6" y="395.575957"/>
     <use style="stroke:#000000;" x="281.35552" xlink:href="#m1d7c3ddee6" y="356.86546"/>
     <use style="stroke:#000000;" x="356.228722" xlink:href="#m1d7c3ddee6" y="393.830026"/>
     <use style="stroke:#000000;" x="357.690643" xlink:href="#m1d7c3ddee6" y="399.628747"/>
     <use style="stroke:#000000;" x="120.574235" xlink:href="#m1d7c3ddee6" y="206.976755"/>
     <use style="stroke:#000000;" x="398.268568" xlink:href="#m1d7c3ddee6" y="356.097107"/>
     <use style="stroke:#000000;" x="378.914489" xlink:href="#m1d7c3ddee6" y="289.313953"/>
     <use style="stroke:#000000;" x="372.264667" xlink:href="#m1d7c3ddee6" y="269.599473"/>
     <use style="stroke:#000000;" x="327.993527" xlink:href="#m1d7c3ddee6" y="366.577861"/>
     <use style="stroke:#000000;" x="375.697471" xlink:href="#m1d7c3ddee6" y="247.995908"/>
     <use style="stroke:#000000;" x="352.403138" xlink:href="#m1d7c3ddee6" y="375.096425"/>
     <use style="stroke:#000000;" x="348.866015" xlink:href="#m1d7c3ddee6" y="405.477582"/>
     <use style="stroke:#000000;" x="367.972771" xlink:href="#m1d7c3ddee6" y="393.668376"/>
     <use style="stroke:#000000;" x="391.201393" xlink:href="#m1d7c3ddee6" y="296.110632"/>
     <use style="stroke:#000000;" x="341.018072" xlink:href="#m1d7c3ddee6" y="383.538045"/>
     <use style="stroke:#000000;" x="344.835096" xlink:href="#m1d7c3ddee6" y="351.775021"/>
     <use style="stroke:#000000;" x="383.185115" xlink:href="#m1d7c3ddee6" y="378.447381"/>
     <use style="stroke:#000000;" x="190.551324" xlink:href="#m1d7c3ddee6" y="428.116321"/>
     <use style="stroke:#000000;" x="299.288446" xlink:href="#m1d7c3ddee6" y="243.77967"/>
     <use style="stroke:#000000;" x="355.310882" xlink:href="#m1d7c3ddee6" y="310.46147"/>
     <use style="stroke:#000000;" x="206.379465" xlink:href="#m1d7c3ddee6" y="301.041443"/>
     <use style="stroke:#000000;" x="319.598591" xlink:href="#m1d7c3ddee6" y="329.306244"/>
     <use style="stroke:#000000;" x="376.813216" xlink:href="#m1d7c3ddee6" y="241.528096"/>
     <use style="stroke:#000000;" x="309.200334" xlink:href="#m1d7c3ddee6" y="280.641196"/>
     <use style="stroke:#000000;" x="264.217582" xlink:href="#m1d7c3ddee6" y="322.783217"/>
     <use style="stroke:#000000;" x="407.324896" xlink:href="#m1d7c3ddee6" y="326.26182"/>
     <use style="stroke:#000000;" x="220.401738" xlink:href="#m1d7c3ddee6" y="413.527807"/>
     <use style="stroke:#000000;" x="339.446098" xlink:href="#m1d7c3ddee6" y="248.701906"/>
     <use style="stroke:#000000;" x="267.405791" xlink:href="#m1d7c3ddee6" y="309.591988"/>
     <use style="stroke:#000000;" x="313.780844" xlink:href="#m1d7c3ddee6" y="308.097306"/>
     <use style="stroke:#000000;" x="370.250104" xlink:href="#m1d7c3ddee6" y="434.547297"/>
     <use style="stroke:#000000;" x="239.895484" xlink:href="#m1d7c3ddee6" y="316.984722"/>
     <use style="stroke:#000000;" x="446.124564" xlink:href="#m1d7c3ddee6" y="280.001053"/>
    </g>
   </g>
  </g>
 </g>
 <defs>
  <clipPath id="pabb2ad135e">
   <rect height="434.88" width="382.591486" x="103.904257" y="69.12"/>
  </clipPath>
 </defs>
</svg>
